<svg
  height="100%"
  viewBox="0 0 227 91"
  fill="none"
  xmlns="http://www.w3.org/2000/svg"
>
  <path
    d="m33.93 36.669-7.667-1.8c-6.93-1.628-9.393-2.74-9.393-5.751s4.442-5.281 10.107-5.281c5.666 0 10.653 2.43 12.961 6.05l.385.602 8.39-5.075-.39-.648c-1.794-2.986-4.655-5.475-8.498-7.39-3.847-1.965-8.11-2.961-12.672-2.961-12.11 0-20.568 6.268-20.568 15.24 0 7.222 4.833 11.69 15.204 14.053l7.668 1.8c7.464 1.793 9.395 3.014 9.395 5.932 0 2.918-5.06 5.28-11.52 5.28-6.114 0-11.787-2.726-14.457-6.948l-.383-.602L4 54.25l.407.658c1.97 3.159 5.002 5.82 9.003 7.91 4.056 2.207 8.681 3.33 13.746 3.33 6.066 0 11.59-1.454 15.554-4.093 4.144-2.76 6.425-6.72 6.425-11.15 0-7.345-4.834-11.87-15.204-14.234v-.002Z"
    fill="#444653"
  />
  <path
    d="m222.999 57.155-20.347.103 9.345-10.283c3.312-3.157 5.802-6.042 7.401-8.576 1.625-2.574 2.442-5.44 2.427-8.513-.043-8.977-7.529-15.494-17.805-15.494h-.115c-7.809.038-14.543 3.955-18.018 10.48l-.883 1.657 9.199 5.052.91-1.677c1.869-3.443 5.042-5.43 8.709-5.445h.063c2.26 0 4.134.565 5.419 1.638 1.189.99 1.823 2.408 1.828 4.095.008 1.382-.432 2.765-1.348 4.234-.988 1.59-2.814 3.672-5.429 6.196l-15.999 17.005a4.48 4.48 0 0 0-1.328 3.19l.03 5.296h35.936V57.15l.005.005Z"
    fill="#FA0"
  />
  <path
    d="M181.786 54.792a32.265 32.265 0 0 1-3.078-.153c-1.569-.156-2.666-.412-3.697-1.373h-.005c-1.217-1.136-1.534-2.939-1.544-4.978-.03-4.814-.04-16.955-.043-25.245h6.908v-8.659h-7.926V5h-9.986v.743c-.005 1.46 0 5.784 0 8.084v.56h-6.851v8.661h6.851c-.005 4.322-.036 18.566 0 23.829.015 2.009.045 4.043.387 6.04.785 4.562 2.517 8.078 6.138 10.446 3.73 2.438 8.088 2.667 10.801 2.697l2.812.005V54.812l-.767-.017v-.003ZM101.379 30.288v.005c-1.341-3.14-3.197-5.924-5.525-8.272-2.329-2.348-5.098-4.229-8.234-5.588-3.14-1.36-6.54-2.051-10.101-2.051h-.043c-3.546.005-6.933.695-10.062 2.049-3.133 1.356-5.912 3.232-8.256 5.577-2.346 2.346-4.222 5.126-5.575 8.26-1.358 3.144-2.047 6.544-2.047 10.105v48.624l10.643.005V61.325a25.602 25.602 0 0 0 6.342 3.475c2.769 1.045 5.781 1.575 8.96 1.582h.068c3.556 0 6.953-.69 10.094-2.051 3.133-1.359 5.9-3.23 8.223-5.56 2.324-2.33 4.182-5.105 5.52-8.25 1.34-3.146 2.019-6.549 2.019-10.114 0-3.566-.679-6.97-2.019-10.116l-.007-.002Zm-9.795 16.036a15.512 15.512 0 0 1-3.24 4.867 15.23 15.23 0 0 1-4.853 3.29c-1.848.796-3.86 1.2-5.975 1.2h-.043c-2.102-.005-4.099-.41-5.937-1.2a15.23 15.23 0 0 1-4.853-3.29 15.874 15.874 0 0 1-3.267-4.872c-.795-1.835-1.197-3.824-1.197-5.911 0-2.087.405-4.076 1.197-5.911.8-1.846 1.896-3.478 3.261-4.845 1.366-1.368 2.998-2.466 4.856-3.267 1.839-.79 3.835-1.195 5.938-1.2h.043c2.117 0 4.124.404 5.975 1.2 1.858.801 3.493 1.901 4.856 3.267a15.22 15.22 0 0 1 3.234 4.84c.78 1.84 1.174 3.83 1.174 5.916 0 2.084-.395 4.076-1.174 5.916h.005Z"
    fill="#444653"
  />
  <path
    d="M155.653 30.15v.005c-1.346-3.154-3.214-5.952-5.553-8.312-2.339-2.36-5.123-4.25-8.274-5.615-3.156-1.369-6.573-2.062-10.152-2.062h-.06c-3.578 0-6.996.693-10.152 2.062-3.151 1.366-5.935 3.254-8.274 5.615-2.338 2.36-4.207 5.158-5.552 8.312v-.005c-1.348 3.161-2.03 6.58-2.03 10.163s.682 7.006 2.03 10.165c1.345 3.16 3.214 5.947 5.547 8.29 2.337 2.343 5.115 4.22 8.264 5.587l.05.023c3.295 1.418 6.109 3.749 8.035 6.77a89.627 89.627 0 0 0 1.677 2.529.534.534 0 0 0 .88 0h-.002a83.835 83.835 0 0 0 1.66-2.507c1.928-3.03 4.745-5.369 8.047-6.79a.955.955 0 0 1 .055-.022c3.149-1.367 5.927-3.245 8.264-5.588 2.336-2.343 4.202-5.13 5.547-8.29 1.346-3.161 2.03-6.581 2.03-10.165 0-3.583-.682-7.004-2.03-10.163l-.007-.002Zm-9.843 16.114a15.601 15.601 0 0 1-3.254 4.892 15.284 15.284 0 0 1-4.876 3.307c-1.859.801-3.878 1.208-6.006 1.208h-.06c-2.127 0-4.147-.407-6.005-1.208a15.273 15.273 0 0 1-4.876-3.307 15.584 15.584 0 0 1-3.254-4.892c-.782-1.848-1.18-3.85-1.18-5.946 0-2.095.398-4.096 1.18-5.947a15.272 15.272 0 0 1 3.249-4.862c1.37-1.373 3.012-2.478 4.881-3.284 1.861-.801 3.878-1.208 6.005-1.208h.06c2.128 0 4.145.407 6.006 1.208 1.868.806 3.508 1.908 4.881 3.284a15.305 15.305 0 0 1 3.249 4.862c.782 1.848 1.179 3.85 1.179 5.947 0 2.094-.397 4.095-1.179 5.946Z"
    fill="#FA0"
  />
</svg>
